<svg width="44" height="44" viewBox="0 0 44 44" fill="none" xmlns="http://www.w3.org/2000/svg">
<path d="M0.719185 37.083C0.123301 37.6778 -0.113916 38.5525 0.0512124 39.5436C0.210659 40.4992 0.729128 41.4566 1.51145 42.2389C2.29377 43.0213 3.25151 43.5397 4.20677 43.6992C5.1979 43.8643 6.07149 43.6281 6.66737 43.0312C7.13967 42.5592 7.38648 41.9126 7.38648 41.1715C7.38589 40.9701 7.36879 40.7691 7.33534 40.5706C7.17589 39.615 6.65743 38.6576 5.87511 37.8753C5.09279 37.093 4.13504 36.5745 3.17978 36.415C2.18865 36.2499 1.314 36.4871 0.719185 37.083ZM1.91308 41.8373C1.03666 40.9605 0.565775 39.8795 0.565775 38.9509C0.560327 38.5935 0.641602 38.2402 0.802637 37.9211C0.941485 38.3191 1.14471 38.6916 1.4042 39.0237C1.94256 39.7055 2.69398 40.1469 3.63752 40.3355C5.36267 40.6807 5.95217 41.9229 6.15316 42.7318C5.14073 43.583 3.27957 43.2034 1.91308 41.8373ZM5.47347 38.2769C6.70501 39.5088 7.1347 41.143 6.58392 42.1945C6.44507 41.7961 6.24185 41.4232 5.98235 41.0905C5.444 40.4087 4.69257 39.9673 3.74903 39.7787C2.02388 39.4335 1.43439 38.1913 1.23339 37.3824C2.24583 36.5312 4.10699 36.9108 5.47347 38.2769Z" fill="#A66F00"/>
<path d="M0.719185 27.9921C0.123301 28.5869 -0.113916 29.4615 0.0512125 30.4526C0.210659 31.4083 0.729128 32.3657 1.51145 33.148C2.29377 33.9303 3.25151 34.4488 4.20677 34.6082C5.1979 34.7733 6.07149 34.5372 6.66737 33.9402C7.13967 33.4683 7.38648 32.8216 7.38648 32.0805C7.38589 31.8792 7.36879 31.6782 7.33534 31.4796C7.17589 30.524 6.65743 29.5666 5.87511 28.7843C5.09279 28.002 4.13504 27.4835 3.17978 27.3241C2.18865 27.159 1.314 27.3962 0.719185 27.9921ZM1.91308 32.7463C1.03666 31.8696 0.565775 30.7886 0.565775 29.86C0.560327 29.5026 0.641603 29.1492 0.802637 28.8301C0.941485 29.2281 1.14471 29.6006 1.4042 29.9328C1.94256 30.6146 2.69398 31.056 3.63752 31.2446C5.36268 31.5897 5.95217 32.8319 6.15316 33.6409C5.14073 34.4921 3.27957 34.1125 1.91308 32.7463ZM5.47347 29.186C6.70501 30.4178 7.1347 32.0521 6.58392 33.1036C6.44507 32.7052 6.24185 32.3322 5.98235 31.9995C5.444 31.3177 4.69257 30.8763 3.74903 30.6877C2.02388 30.3426 1.43439 29.1004 1.23339 28.2914C2.24583 27.4402 4.10699 27.8198 5.47347 29.186Z" fill="#A66F00"/>
<path d="M9.81014 27.9921C9.21426 28.5869 8.97704 29.4615 9.14217 30.4526C9.30162 31.4083 9.82008 32.3657 10.6024 33.148C11.3847 33.9303 12.3425 34.4488 13.2977 34.6082C14.2889 34.7733 15.1624 34.5372 15.7583 33.9402C16.2306 33.4683 16.4774 32.8216 16.4774 32.0805C16.4769 31.8792 16.4597 31.6782 16.4263 31.4796C16.2669 30.524 15.7484 29.5666 14.9661 28.7843C14.1837 28.002 13.226 27.4835 12.2707 27.3241C11.2796 27.159 10.405 27.3962 9.81014 27.9921ZM11.004 32.7463C10.1276 31.8696 9.65673 30.7886 9.65673 29.86C9.65128 29.5026 9.73256 29.1492 9.89359 28.8301C10.0324 29.2281 10.2357 29.6006 10.4952 29.9328C11.0335 30.6146 11.7849 31.056 12.7285 31.2446C14.4536 31.5897 15.0431 32.8319 15.2441 33.6409C14.2317 34.4921 12.3705 34.1125 11.004 32.7463ZM14.5644 29.186C15.796 30.4178 16.2257 32.0521 15.6749 33.1036C15.536 32.7052 15.3328 32.3322 15.0733 31.9995C14.535 31.3177 13.7835 30.8763 12.84 30.6877C11.1148 30.3426 10.5253 29.1004 10.3243 28.2914C11.3368 27.4402 13.1979 27.8198 14.5644 29.186Z" fill="#A66F00"/>
<path d="M0.719185 18.9011C0.123301 19.4959 -0.113916 20.3706 0.0512126 21.3617C0.210659 22.3173 0.729128 23.2747 1.51145 24.057C2.29377 24.8393 3.25151 25.3578 4.20677 25.5173C5.1979 25.6824 6.07149 25.4462 6.66737 24.8493C7.13967 24.3773 7.38648 23.7307 7.38648 22.9895C7.38589 22.7882 7.36879 22.5872 7.33534 22.3887C7.1759 21.4331 6.65743 20.4757 5.87511 19.6934C5.09279 18.911 4.13504 18.3926 3.17978 18.2331C2.18865 18.068 1.314 18.3052 0.719185 18.9011ZM1.91308 23.6554C1.03666 22.7786 0.565775 21.6976 0.565775 20.769C0.560327 20.4116 0.641603 20.0583 0.802637 19.7392C0.941485 20.1372 1.14471 20.5096 1.4042 20.8418C1.94256 21.5236 2.69398 21.965 3.63752 22.1536C5.36268 22.4988 5.95217 23.741 6.15316 24.5499C5.14073 25.4011 3.27957 25.0215 1.91308 23.6554ZM5.47347 20.095C6.70501 21.3269 7.1347 22.9611 6.58392 24.0126C6.44507 23.6142 6.24185 23.2413 5.98235 22.9086C5.444 22.2268 4.69257 21.7853 3.74903 21.5968C2.02388 21.2516 1.43439 20.0094 1.23339 19.2005C2.24583 18.3492 4.10699 18.7289 5.47347 20.095Z" fill="#A66F00"/>
<path d="M9.81014 18.9011C9.21426 19.4959 8.97704 20.3706 9.14217 21.3617C9.30162 22.3173 9.82009 23.2747 10.6024 24.057C11.3847 24.8393 12.3425 25.3578 13.2977 25.5173C14.2889 25.6824 15.1624 25.4462 15.7583 24.8493C16.2306 24.3773 16.4774 23.7307 16.4774 22.9895C16.4769 22.7882 16.4597 22.5872 16.4263 22.3887C16.2669 21.4331 15.7484 20.4757 14.9661 19.6934C14.1837 18.911 13.226 18.3926 12.2707 18.2331C11.2796 18.068 10.405 18.3052 9.81014 18.9011ZM11.004 23.6554C10.1276 22.7786 9.65673 21.6976 9.65673 20.769C9.65128 20.4116 9.73256 20.0583 9.89359 19.7392C10.0324 20.1372 10.2357 20.5096 10.4952 20.8418C11.0335 21.5236 11.7849 21.965 12.7285 22.1536C14.4536 22.4988 15.0431 23.741 15.2441 24.5499C14.2317 25.4011 12.3705 25.0215 11.004 23.6554ZM14.5644 20.095C15.796 21.3269 16.2257 22.9611 15.6749 24.0126C15.536 23.6142 15.3328 23.2413 15.0733 22.9086C14.535 22.2268 13.7835 21.7853 12.84 21.5968C11.1148 21.2516 10.5253 20.0094 10.3243 19.2005C11.3368 18.3492 13.1979 18.7289 14.5644 20.095Z" fill="#A66F00"/>
<path d="M18.9011 18.9011C18.3052 19.4959 18.068 20.3706 18.2331 21.3617C18.3926 22.3173 18.911 23.2747 19.6934 24.057C20.4757 24.8393 21.4334 25.3578 22.3887 25.5173C23.3798 25.6824 24.2534 25.4462 24.8493 24.8493C25.3216 24.3773 25.5684 23.7307 25.5684 22.9895C25.5678 22.7882 25.5507 22.5872 25.5173 22.3887C25.3578 21.4331 24.8393 20.4757 24.057 19.6934C23.2747 18.911 22.317 18.3926 21.3617 18.2331C20.3706 18.068 19.4959 18.3052 18.9011 18.9011ZM20.095 23.6554C19.2186 22.7786 18.7477 21.6976 18.7477 20.769C18.7422 20.4116 18.8235 20.0583 18.9846 19.7392C19.1234 20.1372 19.3266 20.5096 19.5861 20.8418C20.1245 21.5236 20.8759 21.965 21.8194 22.1536C23.5446 22.4988 24.1341 23.741 24.3351 24.5499C23.3226 25.4011 21.4615 25.0215 20.095 23.6554ZM23.6554 20.095C24.8869 21.3269 25.3166 22.9611 24.7658 24.0126C24.627 23.6142 24.4238 23.2413 24.1643 22.9086C23.6259 22.2268 22.8745 21.7853 21.9309 21.5968C20.2058 21.2516 19.6163 20.0094 19.4153 19.2005C20.4277 18.3492 22.2889 18.7289 23.6554 20.095Z" fill="#A66F00"/>
<path d="M0.719185 9.81014C0.123301 10.405 -0.113916 11.2796 0.0512127 12.2707C0.21066 13.2264 0.729128 14.1837 1.51145 14.9661C2.29377 15.7484 3.25151 16.2669 4.20677 16.4263C5.1979 16.5914 6.07149 16.3553 6.66737 15.7583C7.13967 15.2864 7.38648 14.6397 7.38648 13.8986C7.38589 13.6972 7.36879 13.4963 7.33534 13.2977C7.1759 12.3421 6.65743 11.3847 5.87511 10.6024C5.09279 9.82008 4.13504 9.30162 3.17978 9.14217C2.18865 8.97704 1.314 9.21426 0.719185 9.81014ZM1.91308 14.5644C1.03666 13.6876 0.565775 12.6067 0.565775 11.678C0.560328 11.3207 0.641603 10.9673 0.802637 10.6482C0.941485 11.0462 1.14471 11.4187 1.4042 11.7508C1.94256 12.4327 2.69398 12.8741 3.63752 13.0626C5.36268 13.4078 5.95217 14.65 6.15316 15.459C5.14073 16.3102 3.27957 15.9306 1.91308 14.5644ZM5.47347 11.004C6.70501 12.2359 7.1347 13.8702 6.58392 14.9217C6.44507 14.5233 6.24185 14.1503 5.98235 13.8176C5.444 13.1358 4.69257 12.6944 3.74903 12.5058C2.02388 12.1607 1.43439 10.9185 1.23339 10.1095C2.24583 9.25829 4.10699 9.63791 5.47347 11.004Z" fill="#A66F00"/>
<path d="M9.81014 9.81014C9.21426 10.405 8.97704 11.2796 9.14217 12.2707C9.30162 13.2264 9.82009 14.1837 10.6024 14.9661C11.3847 15.7484 12.3425 16.2669 13.2977 16.4263C14.2889 16.5914 15.1624 16.3553 15.7583 15.7583C16.2306 15.2864 16.4774 14.6397 16.4774 13.8986C16.4769 13.6972 16.4597 13.4963 16.4263 13.2977C16.2669 12.3421 15.7484 11.3847 14.9661 10.6024C14.1837 9.82008 13.226 9.30162 12.2707 9.14217C11.2796 8.97704 10.405 9.21426 9.81014 9.81014ZM11.004 14.5644C10.1276 13.6876 9.65673 12.6067 9.65673 11.678C9.65128 11.3207 9.73256 10.9673 9.89359 10.6482C10.0324 11.0462 10.2357 11.4187 10.4952 11.7508C11.0335 12.4327 11.7849 12.8741 12.7285 13.0626C14.4536 13.4078 15.0431 14.65 15.2441 15.459C14.2317 16.3102 12.3705 15.9306 11.004 14.5644ZM14.5644 11.004C15.796 12.2359 16.2257 13.8702 15.6749 14.9217C15.536 14.5233 15.3328 14.1503 15.0733 13.8176C14.535 13.1358 13.7835 12.6944 12.84 12.5058C11.1148 12.1607 10.5253 10.9185 10.3243 10.1095C11.3368 9.25829 13.1979 9.63791 14.5644 11.004Z" fill="#A66F00"/>
<path d="M18.9011 9.81014C18.3052 10.405 18.068 11.2796 18.2331 12.2707C18.3926 13.2264 18.911 14.1837 19.6934 14.9661C20.4757 15.7484 21.4334 16.2669 22.3887 16.4263C23.3798 16.5914 24.2534 16.3553 24.8493 15.7583C25.3216 15.2864 25.5684 14.6397 25.5684 13.8986C25.5678 13.6972 25.5507 13.4963 25.5173 13.2977C25.3578 12.3421 24.8393 11.3847 24.057 10.6024C23.2747 9.82008 22.317 9.30162 21.3617 9.14217C20.3706 8.97704 19.4959 9.21426 18.9011 9.81014ZM20.095 14.5644C19.2186 13.6876 18.7477 12.6067 18.7477 11.678C18.7422 11.3207 18.8235 10.9673 18.9846 10.6482C19.1234 11.0462 19.3266 11.4187 19.5861 11.7508C20.1245 12.4327 20.8759 12.8741 21.8194 13.0626C23.5446 13.4078 24.1341 14.65 24.3351 15.459C23.3226 16.3102 21.4615 15.9306 20.095 14.5644ZM23.6554 11.004C24.8869 12.2359 25.3166 13.8702 24.7658 14.9217C24.627 14.5233 24.4238 14.1503 24.1643 13.8176C23.6259 13.1358 22.8745 12.6944 21.9309 12.5058C20.2058 12.1607 19.6163 10.9185 19.4153 10.1095C20.4277 9.25829 22.2889 9.63791 23.6554 11.004Z" fill="#A66F00"/>
<path d="M27.9921 9.81014C27.3962 10.405 27.159 11.2796 27.3241 12.2707C27.4835 13.2264 28.002 14.1837 28.7843 14.9661C29.5666 15.7484 30.5244 16.2669 31.4796 16.4263C32.4708 16.5914 33.3444 16.3553 33.9402 15.7583C34.4125 15.2864 34.6593 14.6397 34.6593 13.8986C34.6588 13.6972 34.6417 13.4963 34.6082 13.2977C34.4488 12.3421 33.9303 11.3847 33.148 10.6024C32.3657 9.82008 31.4079 9.30162 30.4527 9.14217C29.4615 8.97704 28.5869 9.21426 27.9921 9.81014ZM29.186 14.5644C28.3095 13.6876 27.8386 12.6067 27.8386 11.678C27.8332 11.3207 27.9145 10.9673 28.0755 10.6482C28.2144 11.0462 28.4176 11.4187 28.6771 11.7508C29.2154 12.4327 29.9669 12.8741 30.9104 13.0626C32.6355 13.4078 33.225 14.65 33.426 15.459C32.4136 16.3102 30.5524 15.9306 29.186 14.5644ZM32.7463 11.004C33.9779 12.2359 34.4076 13.8702 33.8568 14.9217C33.7179 14.5233 33.5147 14.1503 33.2552 13.8176C32.7169 13.1358 31.9654 12.6944 31.0219 12.5058C29.2967 12.1607 28.7073 10.9185 28.5063 10.1095C29.5187 9.25829 31.3799 9.63791 32.7463 11.004Z" fill="#A66F00"/>
<path d="M37.083 0.719186C36.4871 1.314 36.2499 2.18865 36.415 3.17978C36.5745 4.1354 37.093 5.09279 37.8753 5.87511C38.6576 6.65743 39.6153 7.17589 40.5706 7.33534C41.5617 7.50047 42.4353 7.26432 43.0312 6.66737C43.5035 6.19542 43.7503 5.54876 43.7503 4.80763C43.7497 4.60628 43.7326 4.40532 43.6992 4.20677C43.5397 3.25116 43.0213 2.29377 42.2389 1.51145C41.4566 0.729128 40.4989 0.210661 39.5436 0.0512145C38.5525 -0.113914 37.6778 0.123302 37.083 0.719186ZM38.2769 5.47347C37.4005 4.59669 36.9296 3.51572 36.9296 2.58709C36.9242 2.22972 37.0054 1.87635 37.1665 1.55726C37.3053 1.95524 37.5085 2.32773 37.768 2.65989C38.3064 3.34171 39.0578 3.78312 40.0014 3.97169C41.7265 4.31686 42.316 5.55905 42.517 6.36801C41.5046 7.21922 39.6434 6.8396 38.2769 5.47347ZM41.8373 1.91309C43.0688 3.14498 43.4985 4.77922 42.9477 5.83072C42.8089 5.4323 42.6057 5.05934 42.3462 4.72666C41.8078 4.04484 41.0564 3.60343 40.1129 3.41487C38.3877 3.06969 37.7982 1.8275 37.5972 1.01855C38.6097 0.167337 40.4708 0.546956 41.8373 1.91309Z" fill="#A66F00"/>
<path d="M0.719185 0.719185C0.123301 1.314 -0.113916 2.18865 0.0512128 3.17978C0.21066 4.13539 0.729128 5.09279 1.51145 5.87511C2.29377 6.65743 3.25151 7.17589 4.20677 7.33534C5.1979 7.50047 6.07149 7.26432 6.66737 6.66737C7.13967 6.19542 7.38648 5.54875 7.38648 4.80763C7.38589 4.60628 7.36879 4.40532 7.33534 4.20677C7.1759 3.25116 6.65743 2.29377 5.87511 1.51145C5.09279 0.729128 4.13504 0.210661 3.17978 0.051214C2.18865 -0.113915 1.314 0.123302 0.719185 0.719185ZM1.91308 5.47347C1.03666 4.59669 0.565775 3.51572 0.565775 2.58709C0.560328 2.22972 0.641603 1.87635 0.802637 1.55726C0.941485 1.95524 1.14471 2.32773 1.4042 2.65989C1.94256 3.34171 2.69398 3.78312 3.63752 3.97169C5.36268 4.31686 5.95217 5.55905 6.15316 6.36801C5.14073 7.21922 3.27957 6.8396 1.91308 5.47347ZM5.47347 1.91308C6.70501 3.14498 7.1347 4.77922 6.58392 5.83072C6.44507 5.4323 6.24185 5.05934 5.98235 4.72666C5.444 4.04484 4.69257 3.60343 3.74903 3.41487C2.02388 3.06969 1.43439 1.8275 1.23339 1.01855C2.24583 0.167336 4.10699 0.546956 5.47347 1.91308Z" fill="#A66F00"/>
<path d="M9.81014 0.719186C9.21426 1.314 8.97704 2.18865 9.14217 3.17978C9.30162 4.13539 9.82009 5.09279 10.6024 5.87511C11.3847 6.65743 12.3425 7.17589 13.2977 7.33534C14.2889 7.50047 15.1624 7.26432 15.7583 6.66737C16.2306 6.19542 16.4774 5.54875 16.4774 4.80763C16.4769 4.60628 16.4597 4.40532 16.4263 4.20677C16.2669 3.25116 15.7484 2.29377 14.9661 1.51145C14.1837 0.729128 13.226 0.210661 12.2707 0.0512141C11.2796 -0.113915 10.405 0.123302 9.81014 0.719186ZM11.004 5.47347C10.1276 4.59669 9.65673 3.51572 9.65673 2.58709C9.65128 2.22972 9.73256 1.87635 9.89359 1.55726C10.0324 1.95524 10.2357 2.32773 10.4952 2.65989C11.0335 3.34171 11.7849 3.78312 12.7285 3.97169C14.4536 4.31686 15.0431 5.55905 15.2441 6.36801C14.2317 7.21922 12.3705 6.8396 11.004 5.47347ZM14.5644 1.91309C15.796 3.14498 16.2257 4.77922 15.6749 5.83072C15.536 5.4323 15.3328 5.05934 15.0733 4.72666C14.535 4.04484 13.7835 3.60343 12.84 3.41487C11.1148 3.06969 10.5253 1.8275 10.3243 1.01855C11.3368 0.167337 13.1979 0.546956 14.5644 1.91309Z" fill="#A66F00"/>
<path d="M18.9011 0.719186C18.3052 1.314 18.068 2.18865 18.2331 3.17978C18.3926 4.13539 18.911 5.09279 19.6934 5.87511C20.4757 6.65743 21.4334 7.17589 22.3887 7.33534C23.3798 7.50047 24.2534 7.26432 24.8493 6.66737C25.3216 6.19542 25.5684 5.54875 25.5684 4.80763C25.5678 4.60628 25.5507 4.40532 25.5173 4.20677C25.3578 3.25116 24.8393 2.29377 24.057 1.51145C23.2747 0.729128 22.317 0.210661 21.3617 0.0512143C20.3706 -0.113914 19.4959 0.123302 18.9011 0.719186ZM20.095 5.47347C19.2186 4.59669 18.7477 3.51572 18.7477 2.58709C18.7422 2.22972 18.8235 1.87635 18.9846 1.55726C19.1234 1.95524 19.3266 2.32773 19.5861 2.65989C20.1245 3.34171 20.8759 3.78312 21.8194 3.97169C23.5446 4.31686 24.1341 5.55905 24.3351 6.36801C23.3226 7.21922 21.4615 6.8396 20.095 5.47347ZM23.6554 1.91309C24.8869 3.14498 25.3166 4.77922 24.7658 5.83072C24.627 5.4323 24.4238 5.05934 24.1643 4.72666C23.6259 4.04484 22.8745 3.60343 21.9309 3.41487C20.2058 3.06969 19.6163 1.8275 19.4153 1.01855C20.4277 0.167337 22.2889 0.546956 23.6554 1.91309Z" fill="#A66F00"/>
<path d="M27.9921 0.719186C27.3962 1.314 27.159 2.18865 27.3241 3.17978C27.4835 4.1354 28.002 5.09279 28.7843 5.87511C29.5666 6.65743 30.5244 7.17589 31.4796 7.33534C32.4708 7.50047 33.3444 7.26432 33.9402 6.66737C34.4125 6.19542 34.6593 5.54876 34.6593 4.80763C34.6588 4.60628 34.6417 4.40532 34.6082 4.20677C34.4488 3.25116 33.9303 2.29377 33.148 1.51145C32.3657 0.729128 31.4079 0.210661 30.4527 0.0512144C29.4615 -0.113914 28.5869 0.123302 27.9921 0.719186ZM29.186 5.47347C28.3095 4.59669 27.8386 3.51572 27.8386 2.58709C27.8332 2.22972 27.9145 1.87635 28.0755 1.55726C28.2144 1.95524 28.4176 2.32773 28.6771 2.65989C29.2154 3.34171 29.9669 3.78312 30.9104 3.97169C32.6355 4.31686 33.225 5.55905 33.426 6.36801C32.4136 7.21922 30.5524 6.8396 29.186 5.47347ZM32.7463 1.91309C33.9779 3.14498 34.4076 4.77922 33.8568 5.83072C33.7179 5.4323 33.5147 5.05934 33.2552 4.72666C32.7169 4.04484 31.9654 3.60343 31.0219 3.41487C29.2967 3.06969 28.7073 1.8275 28.5063 1.01855C29.5187 0.167337 31.3799 0.546956 32.7463 1.91309Z" fill="#A66F00"/>
</svg>
