<svg width="44" height="44" viewBox="0 0 44 44" fill="none" xmlns="http://www.w3.org/2000/svg">
<path d="M6.66748 0.719185C6.07266 0.123301 5.19801 -0.113916 4.20688 0.0512124C3.25127 0.210659 2.29388 0.729128 1.51156 1.51145C0.729237 2.29377 0.210768 3.25151 0.0513216 4.20677C-0.113807 5.1979 0.122345 6.07149 0.719294 6.66737C1.19124 7.13967 1.83791 7.38648 2.57903 7.38648C2.78038 7.38589 2.98134 7.36879 3.17989 7.33534C4.1355 7.17589 5.0929 6.65743 5.87522 5.87511C6.65753 5.09279 7.176 4.13504 7.33545 3.17978C7.50058 2.18865 7.26336 1.314 6.66748 0.719185ZM1.91319 1.91308C2.78997 1.03666 3.87094 0.565775 4.79957 0.565775C5.15695 0.560327 5.51032 0.641602 5.8294 0.802637C5.43143 0.941485 5.05893 1.14471 4.72677 1.4042C4.04495 1.94256 3.60354 2.69398 3.41498 3.63752C3.0698 5.36267 1.82761 5.95217 1.01866 6.15316C0.167444 5.14073 0.547063 3.27957 1.91319 1.91308ZM5.47358 5.47347C4.24168 6.70501 2.60744 7.1347 1.55595 6.58392C1.95436 6.44507 2.32732 6.24185 2.66 5.98235C3.34182 5.444 3.78323 4.69257 3.9718 3.74903C4.31697 2.02388 5.55916 1.43439 6.36812 1.23339C7.21933 2.24583 6.83971 4.10699 5.47358 5.47347Z" fill="#FFCA4F"/>
<path d="M15.7584 0.719185C15.1636 0.123301 14.289 -0.113916 13.2978 0.0512124C12.3422 0.210659 11.3848 0.729128 10.6025 1.51145C9.82019 2.29377 9.30172 3.25151 9.14228 4.20677C8.97715 5.1979 9.2133 6.07149 9.81025 6.66737C10.2822 7.13967 10.9289 7.38648 11.67 7.38648C11.8713 7.38589 12.0723 7.36879 12.2708 7.33534C13.2265 7.17589 14.1839 6.65743 14.9662 5.87511C15.7485 5.09279 16.267 4.13504 16.4264 3.17978C16.5915 2.18865 16.3543 1.314 15.7584 0.719185ZM11.0041 1.91308C11.8809 1.03666 12.9619 0.565775 13.8905 0.565775C14.2479 0.560327 14.6013 0.641602 14.9204 0.802637C14.5224 0.941485 14.1499 1.14471 13.8177 1.4042C13.1359 1.94256 12.6945 2.69398 12.5059 3.63752C12.1608 5.36267 10.9186 5.95217 10.1096 6.15316C9.2584 5.14073 9.63802 3.27957 11.0041 1.91308ZM14.5645 5.47347C13.3326 6.70501 11.6984 7.1347 10.6469 6.58392C11.0453 6.44507 11.4183 6.24185 11.751 5.98235C12.4328 5.444 12.8742 4.69257 13.0628 3.74903C13.4079 2.02388 14.6501 1.43439 15.4591 1.23339C16.3103 2.24583 15.9307 4.10699 14.5645 5.47347Z" fill="#FFCA4F"/>
<path d="M15.7584 9.81014C15.1636 9.21426 14.289 8.97704 13.2978 9.14217C12.3422 9.30162 11.3848 9.82008 10.6025 10.6024C9.82019 11.3847 9.30172 12.3425 9.14228 13.2977C8.97715 14.2889 9.2133 15.1624 9.81025 15.7583C10.2822 16.2306 10.9289 16.4774 11.67 16.4774C11.8713 16.4769 12.0723 16.4597 12.2708 16.4263C13.2265 16.2669 14.1839 15.7484 14.9662 14.9661C15.7485 14.1837 16.267 13.226 16.4264 12.2707C16.5915 11.2796 16.3543 10.405 15.7584 9.81014ZM11.0041 11.004C11.8809 10.1276 12.9619 9.65673 13.8905 9.65673C14.2479 9.65128 14.6013 9.73256 14.9204 9.89359C14.5224 10.0324 14.1499 10.2357 13.8177 10.4952C13.1359 11.0335 12.6945 11.7849 12.5059 12.7285C12.1608 14.4536 10.9186 15.0431 10.1096 15.2441C9.2584 14.2317 9.63802 12.3705 11.0041 11.004ZM14.5645 14.5644C13.3326 15.796 11.6984 16.2257 10.6469 15.6749C11.0453 15.536 11.4183 15.3328 11.751 15.0733C12.4328 14.535 12.8742 13.7835 13.0628 12.84C13.4079 11.1148 14.6501 10.5253 15.4591 10.3243C16.3103 11.3368 15.9307 13.1979 14.5645 14.5644Z" fill="#FFCA4F"/>
<path d="M24.8494 0.719185C24.2546 0.123301 23.3799 -0.113916 22.3888 0.0512124C21.4332 0.210659 20.4758 0.729128 19.6935 1.51145C18.9111 2.29377 18.3927 3.25151 18.2332 4.20677C18.0681 5.1979 18.3043 6.07149 18.9012 6.66737C19.3732 7.13967 20.0198 7.38648 20.7609 7.38648C20.9623 7.38589 21.1633 7.36879 21.3618 7.33534C22.3174 7.17589 23.2748 6.65743 24.0571 5.87511C24.8394 5.09279 25.3579 4.13504 25.5174 3.17978C25.6825 2.18865 25.4453 1.314 24.8494 0.719185ZM20.0951 1.91308C20.9719 1.03666 22.0529 0.565775 22.9815 0.565775C23.3389 0.560327 23.6922 0.641602 24.0113 0.802637C23.6133 0.941485 23.2408 1.14471 22.9087 1.4042C22.2269 1.94256 21.7855 2.69398 21.5969 3.63752C21.2517 5.36267 20.0095 5.95217 19.2006 6.15316C18.3494 5.14073 18.729 3.27957 20.0951 1.91308ZM23.6555 5.47347C22.4236 6.70501 20.7894 7.1347 19.7379 6.58392C20.1363 6.44507 20.5092 6.24185 20.8419 5.98235C21.5237 5.444 21.9651 4.69257 22.1537 3.74903C22.4989 2.02388 23.7411 1.43439 24.55 1.23339C25.4012 2.24583 25.0216 4.10699 23.6555 5.47347Z" fill="#FFCA4F"/>
<path d="M24.8494 9.81014C24.2546 9.21426 23.3799 8.97704 22.3888 9.14217C21.4332 9.30162 20.4758 9.82008 19.6935 10.6024C18.9111 11.3847 18.3927 12.3425 18.2332 13.2977C18.0681 14.2889 18.3043 15.1624 18.9012 15.7583C19.3732 16.2306 20.0198 16.4774 20.7609 16.4774C20.9623 16.4769 21.1633 16.4597 21.3618 16.4263C22.3174 16.2669 23.2748 15.7484 24.0571 14.9661C24.8394 14.1837 25.3579 13.226 25.5174 12.2707C25.6825 11.2796 25.4453 10.405 24.8494 9.81014ZM20.0951 11.004C20.9719 10.1276 22.0529 9.65673 22.9815 9.65673C23.3389 9.65128 23.6922 9.73256 24.0113 9.89359C23.6133 10.0324 23.2408 10.2357 22.9087 10.4952C22.2269 11.0335 21.7855 11.7849 21.5969 12.7285C21.2517 14.4536 20.0095 15.0431 19.2006 15.2441C18.3494 14.2317 18.729 12.3705 20.0951 11.004ZM23.6555 14.5644C22.4236 15.796 20.7894 16.2257 19.7379 15.6749C20.1363 15.536 20.5092 15.3328 20.8419 15.0733C21.5237 14.535 21.9651 13.7835 22.1537 12.84C22.4989 11.1148 23.7411 10.5253 24.55 10.3243C25.4012 11.3368 25.0216 13.1979 23.6555 14.5644Z" fill="#FFCA4F"/>
<path d="M24.8494 18.9011C24.2546 18.3052 23.3799 18.068 22.3888 18.2331C21.4332 18.3926 20.4758 18.911 19.6935 19.6934C18.9111 20.4757 18.3927 21.4334 18.2332 22.3887C18.0681 23.3798 18.3043 24.2534 18.9012 24.8493C19.3732 25.3216 20.0198 25.5684 20.7609 25.5684C20.9623 25.5678 21.1633 25.5507 21.3618 25.5173C22.3174 25.3578 23.2748 24.8393 24.0571 24.057C24.8394 23.2747 25.3579 22.317 25.5174 21.3617C25.6825 20.3706 25.4453 19.4959 24.8494 18.9011ZM20.0951 20.095C20.9719 19.2186 22.0529 18.7477 22.9815 18.7477C23.3389 18.7422 23.6922 18.8235 24.0113 18.9846C23.6133 19.1234 23.2408 19.3266 22.9087 19.5861C22.2269 20.1245 21.7855 20.8759 21.5969 21.8194C21.2517 23.5446 20.0095 24.1341 19.2006 24.3351C18.3494 23.3226 18.729 21.4615 20.0951 20.095ZM23.6555 23.6554C22.4236 24.8869 20.7894 25.3166 19.7379 24.7658C20.1363 24.627 20.5092 24.4238 20.8419 24.1643C21.5237 23.6259 21.9651 22.8745 22.1537 21.9309C22.4989 20.2058 23.7411 19.6163 24.55 19.4153C25.4012 20.4277 25.0216 22.2889 23.6555 23.6554Z" fill="#FFCA4F"/>
<path d="M33.9403 0.719185C33.3455 0.123301 32.4709 -0.113916 31.4798 0.0512124C30.5241 0.210659 29.5667 0.729128 28.7844 1.51145C28.0021 2.29377 27.4836 3.25151 27.3242 4.20677C27.1591 5.1979 27.3952 6.07149 27.9922 6.66737C28.4641 7.13967 29.1108 7.38648 29.8519 7.38648C30.0532 7.38589 30.2542 7.36879 30.4528 7.33534C31.4084 7.17589 32.3658 6.65743 33.1481 5.87511C33.9304 5.09279 34.4489 4.13504 34.6083 3.17978C34.7734 2.18865 34.5362 1.314 33.9403 0.719185ZM29.1861 1.91308C30.0628 1.03666 31.1438 0.565775 32.0724 0.565775C32.4298 0.560327 32.7832 0.641602 33.1023 0.802637C32.7043 0.941485 32.3318 1.14471 31.9996 1.4042C31.3178 1.94256 30.8764 2.69398 30.6878 3.63752C30.3427 5.36267 29.1005 5.95217 28.2915 6.15316C27.4403 5.14073 27.8199 3.27957 29.1861 1.91308ZM32.7464 5.47347C31.5146 6.70501 29.8803 7.1347 28.8288 6.58392C29.2272 6.44507 29.6002 6.24185 29.9329 5.98235C30.6147 5.444 31.0561 4.69257 31.2447 3.74903C31.5898 2.02388 32.832 1.43439 33.641 1.23339C34.4922 2.24583 34.1126 4.10699 32.7464 5.47347Z" fill="#FFCA4F"/>
<path d="M33.9403 9.81014C33.3455 9.21426 32.4709 8.97704 31.4798 9.14217C30.5241 9.30162 29.5667 9.82008 28.7844 10.6024C28.0021 11.3847 27.4836 12.3425 27.3242 13.2977C27.1591 14.2889 27.3952 15.1624 27.9922 15.7583C28.4641 16.2306 29.1108 16.4774 29.8519 16.4774C30.0532 16.4769 30.2542 16.4597 30.4528 16.4263C31.4084 16.2669 32.3658 15.7484 33.1481 14.9661C33.9304 14.1837 34.4489 13.226 34.6083 12.2707C34.7734 11.2796 34.5362 10.405 33.9403 9.81014ZM29.1861 11.004C30.0628 10.1276 31.1438 9.65673 32.0724 9.65673C32.4298 9.65128 32.7832 9.73256 33.1023 9.89359C32.7043 10.0324 32.3318 10.2357 31.9996 10.4952C31.3178 11.0335 30.8764 11.7849 30.6878 12.7285C30.3427 14.4536 29.1005 15.0431 28.2915 15.2441C27.4403 14.2317 27.8199 12.3705 29.1861 11.004ZM32.7464 14.5644C31.5146 15.796 29.8803 16.2257 28.8288 15.6749C29.2272 15.536 29.6002 15.3328 29.9329 15.0733C30.6147 14.535 31.0561 13.7835 31.2447 12.84C31.5898 11.1148 32.832 10.5253 33.641 10.3243C34.4922 11.3368 34.1126 13.1979 32.7464 14.5644Z" fill="#FFCA4F"/>
<path d="M33.9403 18.9011C33.3455 18.3052 32.4709 18.068 31.4798 18.2331C30.5241 18.3926 29.5667 18.911 28.7844 19.6934C28.0021 20.4757 27.4836 21.4334 27.3242 22.3887C27.1591 23.3798 27.3952 24.2534 27.9922 24.8493C28.4641 25.3216 29.1108 25.5684 29.8519 25.5684C30.0532 25.5678 30.2542 25.5507 30.4528 25.5173C31.4084 25.3578 32.3658 24.8393 33.1481 24.057C33.9304 23.2747 34.4489 22.317 34.6083 21.3617C34.7734 20.3706 34.5362 19.4959 33.9403 18.9011ZM29.1861 20.095C30.0628 19.2186 31.1438 18.7477 32.0724 18.7477C32.4298 18.7422 32.7832 18.8235 33.1023 18.9846C32.7043 19.1234 32.3318 19.3266 31.9996 19.5861C31.3178 20.1245 30.8764 20.8759 30.6878 21.8194C30.3427 23.5446 29.1005 24.1341 28.2915 24.3351C27.4403 23.3226 27.8199 21.4615 29.1861 20.095ZM32.7464 23.6554C31.5146 24.8869 29.8803 25.3166 28.8288 24.7658C29.2272 24.627 29.6002 24.4238 29.9329 24.1643C30.6147 23.6259 31.0561 22.8745 31.2447 21.9309C31.5898 20.2058 32.832 19.6163 33.641 19.4153C34.4922 20.4277 34.1126 22.2889 32.7464 23.6554Z" fill="#FFCA4F"/>
<path d="M33.9403 27.9921C33.3455 27.3962 32.4709 27.159 31.4798 27.3241C30.5241 27.4835 29.5667 28.002 28.7844 28.7843C28.0021 29.5666 27.4836 30.5244 27.3242 31.4796C27.1591 32.4708 27.3952 33.3444 27.9922 33.9402C28.4641 34.4125 29.1108 34.6593 29.8519 34.6593C30.0532 34.6588 30.2542 34.6417 30.4528 34.6082C31.4084 34.4488 32.3658 33.9303 33.1481 33.148C33.9304 32.3657 34.4489 31.4079 34.6083 30.4527C34.7734 29.4615 34.5362 28.5869 33.9403 27.9921ZM29.1861 29.186C30.0628 28.3095 31.1438 27.8386 32.0724 27.8386C32.4298 27.8332 32.7832 27.9145 33.1023 28.0755C32.7043 28.2144 32.3318 28.4176 31.9996 28.6771C31.3178 29.2154 30.8764 29.9669 30.6878 30.9104C30.3427 32.6355 29.1005 33.225 28.2915 33.426C27.4403 32.4136 27.8199 30.5524 29.1861 29.186ZM32.7464 32.7463C31.5146 33.9779 29.8803 34.4076 28.8288 33.8568C29.2272 33.7179 29.6002 33.5147 29.9329 33.2552C30.6147 32.7169 31.0561 31.9654 31.2447 31.0219C31.5898 29.2967 32.832 28.7073 33.641 28.5063C34.4922 29.5187 34.1126 31.3799 32.7464 32.7463Z" fill="#FFCA4F"/>
<path d="M43.0313 37.083C42.4365 36.4871 41.5618 36.2499 40.5707 36.415C39.6151 36.5745 38.6577 37.093 37.8754 37.8753C37.0931 38.6576 36.5746 39.6153 36.4151 40.5706C36.25 41.5617 36.4862 42.4353 37.0831 43.0312C37.5551 43.5035 38.2017 43.7503 38.9429 43.7503C39.1442 43.7497 39.3452 43.7326 39.5437 43.6992C40.4993 43.5397 41.4567 43.0213 42.239 42.2389C43.0214 41.4566 43.5398 40.4989 43.6993 39.5436C43.8644 38.5525 43.6272 37.6778 43.0313 37.083ZM38.277 38.2769C39.1538 37.4005 40.2348 36.9296 41.1634 36.9296C41.5208 36.9242 41.8741 37.0054 42.1932 37.1665C41.7952 37.3053 41.4228 37.5085 41.0906 37.768C40.4088 38.3064 39.9674 39.0578 39.7788 40.0014C39.4336 41.7265 38.1914 42.316 37.3825 42.517C36.5313 41.5046 36.9109 39.6434 38.277 38.2769ZM41.8374 41.8373C40.6055 43.0688 38.9713 43.4985 37.9198 42.9477C38.3182 42.8089 38.6911 42.6057 39.0238 42.3462C39.7056 41.8078 40.1471 41.0564 40.3356 40.1129C40.6808 38.3877 41.923 37.7982 42.7319 37.5972C43.5832 38.6097 43.2035 40.4708 41.8374 41.8373Z" fill="#FFCA4F"/>
<path d="M43.0313 0.719185C42.4365 0.123301 41.5618 -0.113916 40.5707 0.0512124C39.6151 0.210659 38.6577 0.729128 37.8754 1.51145C37.0931 2.29377 36.5746 3.25151 36.4151 4.20677C36.25 5.1979 36.4862 6.07149 37.0831 6.66737C37.5551 7.13967 38.2017 7.38648 38.9429 7.38648C39.1442 7.38589 39.3452 7.36879 39.5437 7.33534C40.4993 7.17589 41.4567 6.65743 42.239 5.87511C43.0214 5.09279 43.5398 4.13504 43.6993 3.17978C43.8644 2.18865 43.6272 1.314 43.0313 0.719185ZM38.277 1.91308C39.1538 1.03666 40.2348 0.565775 41.1634 0.565775C41.5208 0.560327 41.8741 0.641602 42.1932 0.802637C41.7952 0.941485 41.4228 1.14471 41.0906 1.4042C40.4088 1.94256 39.9674 2.69398 39.7788 3.63752C39.4336 5.36267 38.1914 5.95217 37.3825 6.15316C36.5313 5.14073 36.9109 3.27957 38.277 1.91308ZM41.8374 5.47347C40.6055 6.70501 38.9713 7.1347 37.9198 6.58392C38.3182 6.44507 38.6911 6.24185 39.0238 5.98235C39.7056 5.444 40.1471 4.69257 40.3356 3.74903C40.6808 2.02388 41.923 1.43439 42.7319 1.23339C43.5832 2.24583 43.2035 4.10699 41.8374 5.47347Z" fill="#FFCA4F"/>
<path d="M43.0313 9.81014C42.4365 9.21426 41.5618 8.97704 40.5707 9.14217C39.6151 9.30162 38.6577 9.82008 37.8754 10.6024C37.0931 11.3847 36.5746 12.3425 36.4151 13.2977C36.25 14.2889 36.4862 15.1624 37.0831 15.7583C37.5551 16.2306 38.2017 16.4774 38.9429 16.4774C39.1442 16.4769 39.3452 16.4597 39.5437 16.4263C40.4993 16.2669 41.4567 15.7484 42.239 14.9661C43.0214 14.1837 43.5398 13.226 43.6993 12.2707C43.8644 11.2796 43.6272 10.405 43.0313 9.81014ZM38.277 11.004C39.1538 10.1276 40.2348 9.65673 41.1634 9.65673C41.5208 9.65128 41.8741 9.73256 42.1932 9.89359C41.7952 10.0324 41.4228 10.2357 41.0906 10.4952C40.4088 11.0335 39.9674 11.7849 39.7788 12.7285C39.4336 14.4536 38.1914 15.0431 37.3825 15.2441C36.5313 14.2317 36.9109 12.3705 38.277 11.004ZM41.8374 14.5644C40.6055 15.796 38.9713 16.2257 37.9198 15.6749C38.3182 15.536 38.6911 15.3328 39.0238 15.0733C39.7056 14.535 40.1471 13.7835 40.3356 12.84C40.6808 11.1148 41.923 10.5253 42.7319 10.3243C43.5832 11.3368 43.2035 13.1979 41.8374 14.5644Z" fill="#FFCA4F"/>
<path d="M43.0313 18.9011C42.4365 18.3052 41.5618 18.068 40.5707 18.2331C39.6151 18.3926 38.6577 18.911 37.8754 19.6934C37.0931 20.4757 36.5746 21.4334 36.4151 22.3887C36.25 23.3798 36.4862 24.2534 37.0831 24.8493C37.5551 25.3216 38.2017 25.5684 38.9429 25.5684C39.1442 25.5678 39.3452 25.5507 39.5437 25.5173C40.4993 25.3578 41.4567 24.8393 42.239 24.057C43.0214 23.2747 43.5398 22.317 43.6993 21.3617C43.8644 20.3706 43.6272 19.4959 43.0313 18.9011ZM38.277 20.095C39.1538 19.2186 40.2348 18.7477 41.1634 18.7477C41.5208 18.7422 41.8741 18.8235 42.1932 18.9846C41.7952 19.1234 41.4228 19.3266 41.0906 19.5861C40.4088 20.1245 39.9674 20.8759 39.7788 21.8194C39.4336 23.5446 38.1914 24.1341 37.3825 24.3351C36.5313 23.3226 36.9109 21.4615 38.277 20.095ZM41.8374 23.6554C40.6055 24.8869 38.9713 25.3166 37.9198 24.7658C38.3182 24.627 38.6911 24.4238 39.0238 24.1643C39.7056 23.6259 40.1471 22.8745 40.3356 21.9309C40.6808 20.2058 41.923 19.6163 42.7319 19.4153C43.5832 20.4277 43.2035 22.2889 41.8374 23.6554Z" fill="#FFCA4F"/>
<path d="M43.0313 27.9921C42.4365 27.3962 41.5618 27.159 40.5707 27.3241C39.6151 27.4835 38.6577 28.002 37.8754 28.7843C37.0931 29.5666 36.5746 30.5244 36.4151 31.4796C36.25 32.4708 36.4862 33.3444 37.0831 33.9402C37.5551 34.4125 38.2017 34.6593 38.9429 34.6593C39.1442 34.6588 39.3452 34.6417 39.5437 34.6082C40.4993 34.4488 41.4567 33.9303 42.239 33.148C43.0214 32.3657 43.5398 31.4079 43.6993 30.4527C43.8644 29.4615 43.6272 28.5869 43.0313 27.9921ZM38.277 29.186C39.1538 28.3095 40.2348 27.8386 41.1634 27.8386C41.5208 27.8332 41.8741 27.9145 42.1932 28.0755C41.7952 28.2144 41.4228 28.4176 41.0906 28.6771C40.4088 29.2154 39.9674 29.9669 39.7788 30.9104C39.4336 32.6355 38.1914 33.225 37.3825 33.426C36.5313 32.4136 36.9109 30.5524 38.277 29.186ZM41.8374 32.7463C40.6055 33.9779 38.9713 34.4076 37.9198 33.8568C38.3182 33.7179 38.6911 33.5147 39.0238 33.2552C39.7056 32.7169 40.1471 31.9654 40.3356 31.0219C40.6808 29.2967 41.923 28.7073 42.7319 28.5063C43.5832 29.5187 43.2035 31.3799 41.8374 32.7463Z" fill="#FFCA4F"/>
</svg>
