<svg width="44" height="44" viewBox="0 0 44 44" fill="none" xmlns="http://www.w3.org/2000/svg">
<path d="M37.083 43.0311C37.6778 43.627 38.5525 43.8642 39.5436 43.6991C40.4992 43.5396 41.4566 43.0212 42.2389 42.2389C43.0213 41.4565 43.5397 40.4988 43.6992 39.5435C43.8643 38.5524 43.6281 37.6788 43.0312 37.0829C42.5592 36.6106 41.9126 36.3638 41.1715 36.3638C40.9701 36.3644 40.7691 36.3815 40.5706 36.415C39.615 36.5744 38.6576 37.0929 37.8753 37.8752C37.093 38.6575 36.5745 39.6153 36.415 40.5705C36.2499 41.5617 36.4871 42.4363 37.083 43.0311ZM41.8373 41.8372C40.9605 42.7136 39.8795 43.1845 38.9509 43.1845C38.5935 43.19 38.2402 43.1087 37.9211 42.9477C38.3191 42.8088 38.6916 42.6056 39.0237 42.3461C39.7055 41.8077 40.1469 41.0563 40.3355 40.1128C40.6807 38.3876 41.9229 37.7981 42.7318 37.5971C43.583 38.6096 43.2034 40.4707 41.8373 41.8372ZM38.2769 38.2768C39.5088 37.0453 41.143 36.6156 42.1945 37.1664C41.7961 37.3052 41.4232 37.5085 41.0905 37.768C40.4087 38.3063 39.9673 39.0577 39.7787 40.0013C39.4335 41.7264 38.1913 42.3159 37.3824 42.5169C36.5312 41.5045 36.9108 39.6433 38.2769 38.2768Z" fill="#FFCA4F"/>
<path d="M27.9921 43.0311C28.5869 43.627 29.4615 43.8642 30.4526 43.6991C31.4083 43.5396 32.3657 43.0212 33.148 42.2389C33.9303 41.4565 34.4488 40.4988 34.6082 39.5435C34.7733 38.5524 34.5372 37.6788 33.9402 37.0829C33.4683 36.6106 32.8216 36.3638 32.0805 36.3638C31.8792 36.3644 31.6782 36.3815 31.4796 36.415C30.524 36.5744 29.5666 37.0929 28.7843 37.8752C28.002 38.6575 27.4835 39.6153 27.3241 40.5705C27.159 41.5617 27.3962 42.4363 27.9921 43.0311ZM32.7463 41.8372C31.8696 42.7136 30.7886 43.1845 29.86 43.1845C29.5026 43.19 29.1492 43.1087 28.8301 42.9477C29.2281 42.8088 29.6006 42.6056 29.9328 42.3461C30.6146 41.8077 31.056 41.0563 31.2446 40.1128C31.5897 38.3876 32.8319 37.7981 33.6409 37.5971C34.4921 38.6096 34.1125 40.4707 32.7463 41.8372ZM29.186 38.2768C30.4178 37.0453 32.0521 36.6156 33.1036 37.1664C32.7052 37.3052 32.3322 37.5085 31.9995 37.768C31.3177 38.3063 30.8763 39.0577 30.6877 40.0013C30.3426 41.7264 29.1004 42.3159 28.2914 42.5169C27.4402 41.5045 27.8198 39.6433 29.186 38.2768Z" fill="#FFCA4F"/>
<path d="M27.9921 33.9402C28.5869 34.536 29.4615 34.7733 30.4526 34.6081C31.4083 34.4487 32.3657 33.9302 33.148 33.1479C33.9303 32.3656 34.4488 31.4078 34.6082 30.4526C34.7733 29.4614 34.5372 28.5879 33.9402 27.992C33.4683 27.5197 32.8216 27.2729 32.0805 27.2729C31.8792 27.2735 31.6782 27.2906 31.4796 27.324C30.524 27.4835 29.5666 28.0019 28.7843 28.7842C28.002 29.5666 27.4835 30.5243 27.3241 31.4796C27.159 32.4707 27.3962 33.3453 27.9921 33.9402ZM32.7463 32.7463C31.8696 33.6227 30.7886 34.0936 29.86 34.0936C29.5026 34.099 29.1492 34.0177 28.8301 33.8567C29.2281 33.7179 29.6006 33.5146 29.9328 33.2551C30.6146 32.7168 31.056 31.9654 31.2446 31.0218C31.5897 29.2967 32.8319 28.7072 33.6409 28.5062C34.4921 29.5186 34.1125 31.3798 32.7463 32.7463ZM29.186 29.1859C30.4178 27.9543 32.0521 27.5246 33.1036 28.0754C32.7052 28.2143 32.3322 28.4175 31.9995 28.677C31.3177 29.2154 30.8763 29.9668 30.6877 30.9103C30.3426 32.6355 29.1004 33.225 28.2914 33.426C27.4402 32.4135 27.8198 30.5524 29.186 29.1859Z" fill="#FFCA4F"/>
<path d="M18.9011 43.0311C19.4959 43.627 20.3706 43.8642 21.3617 43.6991C22.3173 43.5396 23.2747 43.0212 24.057 42.2389C24.8393 41.4565 25.3578 40.4988 25.5173 39.5435C25.6824 38.5524 25.4462 37.6788 24.8493 37.0829C24.3773 36.6106 23.7307 36.3638 22.9895 36.3638C22.7882 36.3644 22.5872 36.3815 22.3887 36.415C21.4331 36.5744 20.4757 37.0929 19.6934 37.8752C18.911 38.6575 18.3926 39.6153 18.2331 40.5705C18.068 41.5617 18.3052 42.4363 18.9011 43.0311ZM23.6554 41.8372C22.7786 42.7136 21.6976 43.1845 20.769 43.1845C20.4116 43.19 20.0583 43.1087 19.7392 42.9477C20.1372 42.8088 20.5096 42.6056 20.8418 42.3461C21.5236 41.8077 21.965 41.0563 22.1536 40.1128C22.4988 38.3876 23.741 37.7981 24.5499 37.5971C25.4011 38.6096 25.0215 40.4707 23.6554 41.8372ZM20.095 38.2768C21.3269 37.0453 22.9611 36.6156 24.0126 37.1664C23.6142 37.3052 23.2413 37.5085 22.9086 37.768C22.2268 38.3063 21.7853 39.0577 21.5968 40.0013C21.2516 41.7264 20.0094 42.3159 19.2005 42.5169C18.3492 41.5045 18.7289 39.6433 20.095 38.2768Z" fill="#FFCA4F"/>
<path d="M18.9011 33.9402C19.4959 34.536 20.3706 34.7733 21.3617 34.6081C22.3173 34.4487 23.2747 33.9302 24.057 33.1479C24.8393 32.3656 25.3578 31.4078 25.5173 30.4526C25.6824 29.4614 25.4462 28.5879 24.8493 27.992C24.3773 27.5197 23.7307 27.2729 22.9895 27.2729C22.7882 27.2735 22.5872 27.2906 22.3887 27.324C21.4331 27.4835 20.4757 28.0019 19.6934 28.7842C18.911 29.5666 18.3926 30.5243 18.2331 31.4796C18.068 32.4707 18.3052 33.3453 18.9011 33.9402ZM23.6554 32.7463C22.7786 33.6227 21.6976 34.0936 20.769 34.0936C20.4116 34.099 20.0583 34.0177 19.7392 33.8567C20.1372 33.7179 20.5096 33.5146 20.8418 33.2551C21.5236 32.7168 21.965 31.9654 22.1536 31.0218C22.4988 29.2967 23.741 28.7072 24.5499 28.5062C25.4011 29.5186 25.0215 31.3798 23.6554 32.7463ZM20.095 29.1859C21.3269 27.9543 22.9611 27.5246 24.0126 28.0754C23.6142 28.2143 23.2413 28.4175 22.9086 28.677C22.2268 29.2153 21.7853 29.9668 21.5968 30.9103C21.2516 32.6355 20.0094 33.225 19.2005 33.426C18.3492 32.4135 18.7289 30.5524 20.095 29.1859Z" fill="#FFCA4F"/>
<path d="M18.9011 24.8492C19.4959 25.4451 20.3706 25.6823 21.3617 25.5172C22.3173 25.3577 23.2747 24.8393 24.057 24.0569C24.8393 23.2746 25.3578 22.3169 25.5173 21.3616C25.6824 20.3705 25.4462 19.4969 24.8493 18.901C24.3773 18.4287 23.7307 18.1819 22.9895 18.1819C22.7882 18.1825 22.5872 18.1996 22.3887 18.233C21.4331 18.3925 20.4757 18.911 19.6934 19.6933C18.911 20.4756 18.3926 21.4333 18.2331 22.3886C18.068 23.3797 18.3052 24.2544 18.9011 24.8492ZM23.6554 23.6553C22.7786 24.5317 21.6976 25.0026 20.769 25.0026C20.4116 25.0081 20.0583 24.9268 19.7392 24.7658C20.1372 24.6269 20.5096 24.4237 20.8418 24.1642C21.5236 23.6258 21.965 22.8744 22.1536 21.9309C22.4988 20.2057 23.741 19.6162 24.5499 19.4152C25.4011 20.4277 25.0215 22.2888 23.6554 23.6553ZM20.095 20.0949C21.3269 18.8634 22.9611 18.4337 24.0126 18.9845C23.6142 19.1233 23.2413 19.3265 22.9086 19.586C22.2268 20.1244 21.7853 20.8758 21.5968 21.8194C21.2516 23.5445 20.0094 24.134 19.2005 24.335C18.3493 23.3226 18.7289 21.4614 20.095 20.0949Z" fill="#FFCA4F"/>
<path d="M9.81014 43.0311C10.405 43.627 11.2796 43.8642 12.2707 43.6991C13.2264 43.5396 14.1837 43.0212 14.9661 42.2389C15.7484 41.4565 16.2668 40.4988 16.4263 39.5435C16.5914 38.5524 16.3553 37.6788 15.7583 37.0829C15.2864 36.6106 14.6397 36.3638 13.8986 36.3638C13.6972 36.3644 13.4963 36.3815 13.2977 36.415C12.3421 36.5744 11.3847 37.0929 10.6024 37.8752C9.82008 38.6575 9.30162 39.6153 9.14217 40.5705C8.97704 41.5616 9.21426 42.4363 9.81014 43.0311ZM14.5644 41.8372C13.6876 42.7136 12.6067 43.1845 11.6781 43.1845C11.3207 43.19 10.9673 43.1087 10.6482 42.9477C11.0462 42.8088 11.4187 42.6056 11.7508 42.3461C12.4327 41.8077 12.8741 41.0563 13.0626 40.1128C13.4078 38.3876 14.65 37.7981 15.459 37.5971C16.3102 38.6096 15.9306 40.4707 14.5644 41.8372ZM11.004 38.2768C12.2359 37.0453 13.8702 36.6156 14.9217 37.1664C14.5233 37.3052 14.1503 37.5084 13.8176 37.768C13.1358 38.3063 12.6944 39.0577 12.5058 40.0013C12.1607 41.7264 10.9185 42.3159 10.1095 42.5169C9.25829 41.5045 9.63791 39.6433 11.004 38.2768Z" fill="#FFCA4F"/>
<path d="M9.81014 33.9402C10.405 34.536 11.2796 34.7733 12.2707 34.6081C13.2264 34.4487 14.1837 33.9302 14.9661 33.1479C15.7484 32.3656 16.2669 31.4078 16.4263 30.4526C16.5914 29.4614 16.3553 28.5879 15.7583 27.992C15.2864 27.5197 14.6397 27.2729 13.8986 27.2729C13.6972 27.2735 13.4963 27.2906 13.2977 27.324C12.3421 27.4835 11.3847 28.0019 10.6024 28.7842C9.82008 29.5666 9.30162 30.5243 9.14217 31.4796C8.97704 32.4707 9.21426 33.3453 9.81014 33.9402ZM14.5644 32.7463C13.6876 33.6227 12.6067 34.0936 11.6781 34.0936C11.3207 34.099 10.9673 34.0177 10.6482 33.8567C11.0462 33.7179 11.4187 33.5146 11.7508 33.2551C12.4327 32.7168 12.8741 31.9654 13.0626 31.0218C13.4078 29.2967 14.65 28.7072 15.459 28.5062C16.3102 29.5186 15.9306 31.3798 14.5644 32.7463ZM11.004 29.1859C12.2359 27.9543 13.8702 27.5246 14.9217 28.0754C14.5233 28.2143 14.1503 28.4175 13.8176 28.677C13.1358 29.2153 12.6944 29.9668 12.5058 30.9103C12.1607 32.6355 10.9185 33.225 10.1095 33.426C9.25829 32.4135 9.63791 30.5524 11.004 29.1859Z" fill="#FFCA4F"/>
<path d="M9.81014 24.8492C10.405 25.4451 11.2796 25.6823 12.2707 25.5172C13.2264 25.3577 14.1837 24.8393 14.9661 24.0569C15.7484 23.2746 16.2669 22.3169 16.4263 21.3616C16.5914 20.3705 16.3553 19.4969 15.7583 18.901C15.2864 18.4287 14.6397 18.1819 13.8986 18.1819C13.6972 18.1825 13.4963 18.1996 13.2977 18.233C12.3421 18.3925 11.3847 18.911 10.6024 19.6933C9.82009 20.4756 9.30162 21.4333 9.14217 22.3886C8.97704 23.3797 9.21426 24.2544 9.81014 24.8492ZM14.5644 23.6553C13.6876 24.5317 12.6067 25.0026 11.6781 25.0026C11.3207 25.0081 10.9673 24.9268 10.6482 24.7658C11.0462 24.6269 11.4187 24.4237 11.7508 24.1642C12.4327 23.6258 12.8741 22.8744 13.0626 21.9309C13.4078 20.2057 14.65 19.6162 15.459 19.4152C16.3102 20.4277 15.9306 22.2888 14.5644 23.6553ZM11.004 20.0949C12.2359 18.8634 13.8702 18.4337 14.9217 18.9845C14.5233 19.1233 14.1503 19.3265 13.8176 19.586C13.1358 20.1244 12.6944 20.8758 12.5058 21.8194C12.1607 23.5445 10.9185 24.134 10.1095 24.335C9.25829 23.3226 9.63791 21.4614 11.004 20.0949Z" fill="#FFCA4F"/>
<path d="M9.81014 15.7582C10.405 16.3541 11.2796 16.5913 12.2707 16.4262C13.2264 16.2668 14.1837 15.7483 14.9661 14.966C15.7484 14.1837 16.2669 13.2259 16.4263 12.2707C16.5914 11.2795 16.3553 10.4059 15.7583 9.81006C15.2864 9.33776 14.6397 9.09096 13.8986 9.09096C13.6972 9.09154 13.4963 9.10864 13.2977 9.14209C12.3421 9.30154 11.3847 9.82 10.6024 10.6023C9.82009 11.3846 9.30162 12.3424 9.14217 13.2977C8.97705 14.2888 9.21426 15.1634 9.81014 15.7582ZM14.5644 14.5643C13.6876 15.4408 12.6067 15.9117 11.6781 15.9117C11.3207 15.9171 10.9673 15.8358 10.6482 15.6748C11.0462 15.5359 11.4187 15.3327 11.7508 15.0732C12.4327 14.5349 12.8741 13.7835 13.0626 12.8399C13.4078 11.1148 14.65 10.5253 15.459 10.3243C16.3102 11.3367 15.9306 13.1979 14.5644 14.5643ZM11.004 11.004C12.2359 9.77242 13.8702 9.34273 14.9217 9.89351C14.5233 10.0324 14.1503 10.2356 13.8176 10.4951C13.1358 11.0334 12.6944 11.7849 12.5058 12.7284C12.1607 14.4536 10.9185 15.043 10.1095 15.244C9.2583 14.2316 9.63792 12.3704 11.004 11.004Z" fill="#FFCA4F"/>
<path d="M0.719188 6.66729C1.31401 7.26317 2.18866 7.50039 3.17978 7.33526C4.1354 7.17582 5.09279 6.65735 5.87511 5.87503C6.65743 5.09271 7.1759 4.13496 7.33535 3.1797C7.50047 2.18857 7.26432 1.31499 6.66737 0.719105C6.19542 0.2468 5.54876 -3.3397e-06 4.80763 -3.40449e-06C4.60629 0.000580227 4.40533 0.0176853 4.20678 0.0511326C3.25116 0.210579 2.29377 0.729046 1.51145 1.51137C0.72913 2.29369 0.210663 3.25143 0.0512158 4.20669C-0.113911 5.19782 0.123306 6.07247 0.719188 6.66729ZM5.47347 5.47339C4.59669 6.34982 3.51572 6.8207 2.5871 6.8207C2.22972 6.82615 1.87635 6.74487 1.55726 6.58384C1.95524 6.44499 2.32774 6.24176 2.65989 5.98227C3.34172 5.44392 3.78313 4.69249 3.97169 3.74895C4.31686 2.0238 5.55906 1.43431 6.36801 1.23331C7.21922 2.24575 6.8396 4.10691 5.47347 5.47339ZM1.91309 1.913C3.14499 0.681462 4.77922 0.251774 5.83072 0.802559C5.43231 0.941407 5.05935 1.14462 4.72667 1.40412C4.04485 1.94248 3.60344 2.6939 3.41487 3.63744C3.0697 5.36259 1.82751 5.95209 1.01855 6.15308C0.167339 5.14065 0.546959 3.27949 1.91309 1.913Z" fill="#FFCA4F"/>
<path d="M0.719185 43.0311C1.314 43.627 2.18865 43.8642 3.17978 43.6991C4.1354 43.5396 5.09279 43.0212 5.87511 42.2389C6.65743 41.4565 7.1759 40.4988 7.33534 39.5435C7.50047 38.5524 7.26432 37.6788 6.66737 37.0829C6.19542 36.6106 5.54876 36.3638 4.80763 36.3638C4.60628 36.3644 4.40532 36.3815 4.20677 36.415C3.25116 36.5744 2.29377 37.0929 1.51145 37.8752C0.729126 38.6575 0.210659 39.6153 0.0512126 40.5705C-0.113914 41.5616 0.123303 42.4363 0.719185 43.0311ZM5.47347 41.8372C4.59669 42.7136 3.51572 43.1845 2.58709 43.1845C2.22972 43.19 1.87635 43.1087 1.55726 42.9477C1.95524 42.8088 2.32773 42.6056 2.65989 42.3461C3.34171 41.8077 3.78312 41.0563 3.97169 40.1128C4.31686 38.3876 5.55906 37.7981 6.36801 37.5971C7.21922 38.6096 6.8396 40.4707 5.47347 41.8372ZM1.91309 38.2768C3.14498 37.0453 4.77922 36.6156 5.83072 37.1664C5.4323 37.3052 5.05934 37.5084 4.72667 37.7679C4.04484 38.3063 3.60343 39.0577 3.41487 40.0013C3.06969 41.7264 1.8275 42.3159 1.01855 42.5169C0.167336 41.5045 0.546955 39.6433 1.91309 38.2768Z" fill="#FFCA4F"/>
<path d="M0.719186 33.9402C1.314 34.536 2.18865 34.7733 3.17978 34.6081C4.1354 34.4487 5.09279 33.9302 5.87511 33.1479C6.65743 32.3656 7.1759 31.4078 7.33534 30.4526C7.50047 29.4614 7.26432 28.5879 6.66737 27.992C6.19542 27.5197 5.54876 27.2729 4.80763 27.2729C4.60628 27.2735 4.40532 27.2906 4.20677 27.324C3.25116 27.4835 2.29377 28.0019 1.51145 28.7842C0.729127 29.5666 0.21066 30.5243 0.0512134 31.4796C-0.113914 32.4707 0.123303 33.3453 0.719186 33.9402ZM5.47347 32.7463C4.59669 33.6227 3.51572 34.0936 2.58709 34.0936C2.22972 34.099 1.87635 34.0177 1.55726 33.8567C1.95524 33.7179 2.32773 33.5146 2.65989 33.2551C3.34171 32.7168 3.78312 31.9654 3.97169 31.0218C4.31686 29.2967 5.55906 28.7072 6.36801 28.5062C7.21922 29.5186 6.8396 31.3798 5.47347 32.7463ZM1.91309 29.1859C3.14498 27.9543 4.77922 27.5246 5.83072 28.0754C5.43231 28.2143 5.05934 28.4175 4.72667 28.677C4.04484 29.2153 3.60343 29.9668 3.41487 30.9103C3.0697 32.6355 1.8275 33.225 1.01855 33.426C0.167337 32.4135 0.546956 30.5524 1.91309 29.1859Z" fill="#FFCA4F"/>
<path d="M0.719187 24.8492C1.314 25.4451 2.18865 25.6823 3.17978 25.5172C4.1354 25.3577 5.09279 24.8393 5.87511 24.0569C6.65743 23.2746 7.1759 22.3169 7.33534 21.3616C7.50047 20.3705 7.26432 19.4969 6.66737 18.901C6.19542 18.4287 5.54876 18.1819 4.80763 18.1819C4.60628 18.1825 4.40533 18.1996 4.20677 18.233C3.25116 18.3925 2.29377 18.911 1.51145 19.6933C0.729128 20.4756 0.210661 21.4333 0.0512142 22.3886C-0.113913 23.3797 0.123304 24.2544 0.719187 24.8492ZM5.47347 23.6553C4.59669 24.5317 3.51572 25.0026 2.58709 25.0026C2.22972 25.0081 1.87635 24.9268 1.55726 24.7658C1.95524 24.6269 2.32773 24.4237 2.65989 24.1642C3.34171 23.6258 3.78312 22.8744 3.97169 21.9309C4.31686 20.2057 5.55906 19.6162 6.36801 19.4152C7.21922 20.4277 6.8396 22.2888 5.47347 23.6553ZM1.91309 20.0949C3.14498 18.8634 4.77922 18.4337 5.83072 18.9845C5.43231 19.1233 5.05934 19.3265 4.72667 19.586C4.04484 20.1244 3.60343 20.8758 3.41487 21.8194C3.0697 23.5445 1.8275 24.134 1.01855 24.335C0.167337 23.3226 0.546957 21.4614 1.91309 20.0949Z" fill="#FFCA4F"/>
<path d="M0.719187 15.7582C1.31401 16.3541 2.18865 16.5913 3.17978 16.4262C4.1354 16.2668 5.09279 15.7483 5.87511 14.966C6.65743 14.1837 7.1759 13.2259 7.33535 12.2707C7.50047 11.2795 7.26432 10.4059 6.66737 9.81006C6.19542 9.33776 5.54876 9.09095 4.80763 9.09095C4.60628 9.09154 4.40533 9.10864 4.20677 9.14209C3.25116 9.30154 2.29377 9.82 1.51145 10.6023C0.729129 11.3846 0.210662 12.3424 0.051215 13.2976C-0.113912 14.2888 0.123305 15.1634 0.719187 15.7582ZM5.47347 14.5643C4.59669 15.4408 3.51572 15.9117 2.5871 15.9117C2.22972 15.9171 1.87635 15.8358 1.55726 15.6748C1.95524 15.5359 2.32773 15.3327 2.65989 15.0732C3.34172 14.5349 3.78313 13.7834 3.97169 12.8399C4.31686 11.1148 5.55906 10.5253 6.36801 10.3243C7.21922 11.3367 6.8396 13.1979 5.47347 14.5643ZM1.91309 11.004C3.14498 9.77242 4.77922 9.34273 5.83072 9.89351C5.43231 10.0324 5.05934 10.2356 4.72667 10.4951C4.04484 11.0334 3.60343 11.7849 3.41487 12.7284C3.0697 14.4536 1.82751 15.043 1.01855 15.244C0.167338 14.2316 0.546958 12.3704 1.91309 11.004Z" fill="#FFCA4F"/>
</svg>
