<svg width="354" height="54" viewBox="0 0 354 54" fill="none" xmlns="http://www.w3.org/2000/svg">
<g clip-path="url(#clip0_2527_658)">
<path d="M20.866 53.896C17.2393 53.896 13.8687 53.0427 10.754 51.336C7.63935 49.6293 5.14335 47.048 3.26602 43.592C1.38868 40.0933 0.450012 35.72 0.450012 30.472C0.450012 25.4373 1.28202 21.2347 2.94602 17.864C4.65268 14.4933 6.99935 11.9547 9.98602 10.248C13.0153 8.49866 16.514 7.624 20.482 7.624C21.4207 7.624 22.4873 7.752 23.682 8.008C24.8767 8.264 25.922 8.60533 26.818 9.032C27.2447 8.81866 27.8207 8.62666 28.546 8.456C29.2713 8.24266 29.9967 8.05066 30.722 7.88C31.49 7.70933 32.0873 7.624 32.514 7.624C33.0687 8.98933 33.474 10.6107 33.73 12.488C33.986 14.3227 34.1567 16.1573 34.242 17.992C34.3273 19.784 34.37 21.32 34.37 22.6H27.138C26.7967 19.8267 26.0287 17.5653 24.834 15.816C23.682 14.0667 22.1673 13.192 20.29 13.192C17.8153 13.192 15.7673 14.3653 14.146 16.712C12.5673 19.0587 11.778 22.8987 11.778 28.232C11.778 32.6267 12.3753 36.1467 13.57 38.792C14.7647 41.3947 16.3433 43.272 18.306 44.424C20.2687 45.5333 22.3807 46.088 24.642 46.088C26.6047 46.088 28.2687 45.7253 29.634 45C30.9993 44.232 31.9593 43.4427 32.514 42.632C33.0687 43.016 33.4953 43.6133 33.794 44.424C34.1353 45.192 34.306 45.8747 34.306 46.472C34.306 47.4533 33.7727 48.5413 32.706 49.736C31.682 50.888 30.1673 51.8693 28.162 52.68C26.1993 53.4907 23.7673 53.896 20.866 53.896ZM54.894 53.832C51.8647 53.832 49.1767 53.192 46.83 51.912C44.4833 50.5893 42.6487 48.6693 41.326 46.152C40.046 43.592 39.406 40.4347 39.406 36.68C39.406 32.6693 40.0887 29.2987 41.454 26.568C42.8193 23.8373 44.718 21.768 47.15 20.36C49.582 18.952 52.3767 18.248 55.534 18.248C58.606 18.248 61.294 18.9093 63.598 20.232C65.9447 21.5547 67.758 23.5173 69.038 26.12C70.3607 28.68 71.022 31.8587 71.022 35.656C71.022 39.624 70.3393 42.9733 68.974 45.704C67.6087 48.392 65.71 50.4187 63.278 51.784C60.846 53.1493 58.0513 53.832 54.894 53.832ZM55.406 49.224C56.302 49.224 57.07 48.904 57.71 48.264C58.3927 47.624 58.9047 46.4507 59.246 44.744C59.63 42.9947 59.822 40.4773 59.822 37.192C59.822 33.1813 59.63 30.152 59.246 28.104C58.862 26.0133 58.3073 24.6053 57.582 23.88C56.8567 23.1547 56.0033 22.792 55.022 22.792C54.126 22.792 53.3367 23.112 52.654 23.752C51.9713 24.392 51.438 25.5867 51.054 27.336C50.7127 29.0853 50.542 31.624 50.542 34.952C50.542 38.92 50.734 41.928 51.118 43.976C51.5447 46.024 52.1207 47.4107 52.846 48.136C53.5713 48.8613 54.4247 49.224 55.406 49.224ZM79.209 53C78.2277 51.9333 77.737 50.7813 77.737 49.544C78.9743 49.544 79.849 49.2667 80.361 48.712C80.9157 48.1573 81.193 47.2613 81.193 46.024V24.2H77.289V20.232C78.185 20.0187 78.889 19.784 79.401 19.528C79.9557 19.272 80.4463 18.9733 80.873 18.632C80.745 18.0347 80.6597 17.3307 80.617 16.52C80.5743 15.7093 80.553 15.176 80.553 14.92C80.553 11.6347 81.129 8.98933 82.281 6.984C83.433 4.936 85.033 3.44267 87.081 2.504C89.1717 1.56533 91.5397 1.096 94.185 1.096C96.9583 1.096 99.049 1.736 100.457 3.016C101.908 4.296 102.633 5.768 102.633 7.432C102.633 9.096 102.206 10.4827 101.353 11.592C100.5 12.6587 99.305 13.192 97.769 13.192C96.5317 13.192 95.3797 12.808 94.313 12.04C93.2463 11.272 92.713 10.248 92.713 8.968C92.713 8.37067 92.8197 7.77333 93.033 7.176C93.2463 6.57867 93.5663 6.13066 93.993 5.832C93.7797 5.66133 93.5877 5.55466 93.417 5.512C93.289 5.42666 93.097 5.384 92.841 5.384C92.201 5.384 91.5397 5.68267 90.857 6.28C90.217 6.83467 89.6623 7.60267 89.193 8.584C88.7237 9.56533 88.489 10.696 88.489 11.976C88.489 13.9813 88.7237 15.56 89.193 16.712C89.6623 17.864 90.6223 18.44 92.073 18.44H103.913C103.828 17.8853 103.742 17.224 103.657 16.456C103.614 15.688 103.593 15.0267 103.593 14.472C103.593 11.7413 104.19 9.33067 105.385 7.24C106.58 5.10666 108.201 3.44266 110.249 2.248C112.34 1.01066 114.644 0.391998 117.161 0.391998C119.934 0.391998 122.068 1.01066 123.561 2.248C125.097 3.48533 125.865 4.95733 125.865 6.664C125.865 8.28533 125.396 9.672 124.457 10.824C123.518 11.9333 122.302 12.488 120.809 12.488C119.614 12.488 118.462 12.1467 117.353 11.464C116.244 10.7813 115.689 9.77866 115.689 8.456C115.689 7.90133 115.796 7.32533 116.009 6.728C116.222 6.13066 116.564 5.66133 117.033 5.32C116.606 5.064 116.222 4.936 115.881 4.936C115.028 4.936 114.174 5.55466 113.321 6.792C112.51 7.98667 112.105 9.50133 112.105 11.336C112.105 12.616 112.148 13.7893 112.233 14.856C112.318 15.9227 112.574 16.7973 113.001 17.48C113.428 18.12 114.132 18.44 115.113 18.44H122.409C122.409 19.3787 122.345 20.4027 122.217 21.512C122.132 22.5787 121.833 23.4747 121.321 24.2H114.729V45.448C114.729 46.8987 115.177 47.944 116.073 48.584C117.012 49.224 118.761 49.544 121.321 49.544C121.321 50.2267 121.172 50.8453 120.873 51.4C120.617 51.9547 120.254 52.488 119.785 53H102.249C101.822 52.488 101.46 51.9547 101.161 51.4C100.905 50.8453 100.777 50.2267 100.777 49.544C102.057 49.544 102.953 49.2667 103.465 48.712C104.02 48.1573 104.297 47.2613 104.297 46.024V24.2H91.497V45.448C91.497 46.8987 91.8597 47.944 92.585 48.584C93.353 49.224 95.017 49.544 97.577 49.544C97.577 50.824 97.065 51.976 96.041 53H79.209ZM141.611 53.576C136.832 53.576 133.014 52.0613 130.155 49.032C127.339 46.0027 125.931 41.7787 125.931 36.36C125.931 32.648 126.635 29.448 128.043 26.76C129.451 24.0293 131.35 21.9387 133.739 20.488C136.171 19.0373 138.923 18.312 141.995 18.312C145.835 18.312 148.907 19.4427 151.211 21.704C153.558 23.9227 154.731 27.0587 154.731 31.112C154.731 32.7333 154.454 34.1627 153.899 35.4C153.387 36.5947 152.299 37.192 150.635 37.192H136.811C136.939 40.5627 137.707 42.952 139.115 44.36C140.566 45.768 142.443 46.472 144.747 46.472C146.198 46.472 147.542 46.2587 148.779 45.832C150.016 45.3627 151.168 44.7227 152.235 43.912C152.619 44.2533 152.918 44.7867 153.131 45.512C153.387 46.1947 153.515 46.7707 153.515 47.24C153.515 47.9227 153.024 48.776 152.043 49.8C151.104 50.7813 149.739 51.656 147.947 52.424C146.198 53.192 144.086 53.576 141.611 53.576ZM136.811 32.328H143.275C144 32.328 144.448 32.0507 144.619 31.496C144.832 30.9413 144.939 30.2587 144.939 29.448C144.939 26.7173 144.598 24.9253 143.915 24.072C143.275 23.176 142.507 22.728 141.611 22.728C140.886 22.728 140.16 23.0053 139.435 23.56C138.71 24.1147 138.112 25.096 137.643 26.504C137.174 27.8693 136.896 29.8107 136.811 32.328ZM176.999 53.576C172.22 53.576 168.401 52.0613 165.543 49.032C162.727 46.0027 161.319 41.7787 161.319 36.36C161.319 32.648 162.023 29.448 163.431 26.76C164.839 24.0293 166.737 21.9387 169.127 20.488C171.559 19.0373 174.311 18.312 177.383 18.312C181.223 18.312 184.295 19.4427 186.599 21.704C188.945 23.9227 190.119 27.0587 190.119 31.112C190.119 32.7333 189.841 34.1627 189.287 35.4C188.775 36.5947 187.687 37.192 186.023 37.192H172.199C172.327 40.5627 173.095 42.952 174.503 44.36C175.953 45.768 177.831 46.472 180.135 46.472C181.585 46.472 182.929 46.2587 184.167 45.832C185.404 45.3627 186.556 44.7227 187.623 43.912C188.007 44.2533 188.305 44.7867 188.519 45.512C188.775 46.1947 188.903 46.7707 188.903 47.24C188.903 47.9227 188.412 48.776 187.431 49.8C186.492 50.7813 185.127 51.656 183.335 52.424C181.585 53.192 179.473 53.576 176.999 53.576ZM172.199 32.328H178.663C179.388 32.328 179.836 32.0507 180.007 31.496C180.22 30.9413 180.327 30.2587 180.327 29.448C180.327 26.7173 179.985 24.9253 179.303 24.072C178.663 23.176 177.895 22.728 176.999 22.728C176.273 22.728 175.548 23.0053 174.823 23.56C174.097 24.1147 173.5 25.096 173.031 26.504C172.561 27.8693 172.284 29.8107 172.199 32.328ZM216.991 53.896C213.364 53.896 209.994 53.0427 206.879 51.336C203.764 49.6293 201.268 47.048 199.391 43.592C197.514 40.0933 196.575 35.72 196.575 30.472C196.575 25.4373 197.407 21.2347 199.071 17.864C200.778 14.4933 203.124 11.9547 206.111 10.248C209.14 8.49866 212.639 7.624 216.607 7.624C217.546 7.624 218.612 7.752 219.807 8.008C221.002 8.264 222.047 8.60533 222.943 9.032C223.37 8.81866 223.946 8.62666 224.671 8.456C225.396 8.24266 226.122 8.05066 226.847 7.88C227.615 7.70933 228.212 7.624 228.639 7.624C229.194 8.98933 229.599 10.6107 229.855 12.488C230.111 14.3227 230.282 16.1573 230.367 17.992C230.452 19.784 230.495 21.32 230.495 22.6H223.263C222.922 19.8267 222.154 17.5653 220.959 15.816C219.807 14.0667 218.292 13.192 216.415 13.192C213.94 13.192 211.892 14.3653 210.271 16.712C208.692 19.0587 207.903 22.8987 207.903 28.232C207.903 32.6267 208.5 36.1467 209.695 38.792C210.89 41.3947 212.468 43.272 214.431 44.424C216.394 45.5333 218.506 46.088 220.767 46.088C222.73 46.088 224.394 45.7253 225.759 45C227.124 44.232 228.084 43.4427 228.639 42.632C229.194 43.016 229.62 43.6133 229.919 44.424C230.26 45.192 230.431 45.8747 230.431 46.472C230.431 47.4533 229.898 48.5413 228.831 49.736C227.807 50.888 226.292 51.8693 224.287 52.68C222.324 53.4907 219.892 53.896 216.991 53.896ZM238.125 53C237.656 52.5307 237.293 52.0187 237.037 51.464C236.781 50.9093 236.653 50.2693 236.653 49.544C237.89 49.544 238.765 49.288 239.277 48.776C239.832 48.2213 240.109 47.304 240.109 46.024V27.528C240.109 26.4187 239.81 25.6293 239.213 25.16C238.616 24.648 237.506 24.392 235.885 24.392V21.512C236.909 20.9147 238.125 20.4027 239.533 19.976C240.941 19.5067 242.328 19.144 243.693 18.888C245.058 18.5893 246.125 18.44 246.893 18.44C247.874 18.44 248.578 18.7813 249.005 19.464C249.474 20.1467 249.709 21.6187 249.709 23.88C250.178 22.984 250.861 22.1093 251.757 21.256C252.696 20.36 253.741 19.6347 254.893 19.08C256.045 18.5253 257.24 18.248 258.477 18.248C260.482 18.248 261.912 18.76 262.765 19.784C263.618 20.808 264.045 22.1307 264.045 23.752C264.045 25.5867 263.576 27.08 262.637 28.232C261.698 29.384 260.397 29.96 258.733 29.96C257.282 29.96 256.13 29.5547 255.277 28.744C254.424 27.8907 253.997 26.9307 253.997 25.864C253.997 25.1813 254.061 24.648 254.189 24.264C253.506 24.4347 252.845 24.6693 252.205 24.968C251.565 25.224 250.925 25.6507 250.285 26.248V45.448C250.285 46.4293 250.434 47.2187 250.733 47.816C251.032 48.4133 251.608 48.8613 252.461 49.16C253.357 49.416 254.68 49.544 256.429 49.544C256.429 50.2693 256.344 50.9093 256.173 51.464C256.002 52.0187 255.682 52.5307 255.213 53H238.125ZM278.348 53.448C275.148 53.448 272.545 52.5733 270.54 50.824C268.577 49.032 267.596 46.7493 267.596 43.976C267.596 41.2027 268.492 38.9627 270.284 37.256C272.118 35.5493 274.934 34.696 278.732 34.696C279.969 34.696 281.27 34.824 282.635 35.08C284.001 35.2933 285.11 35.6347 285.964 36.104V27.592C285.964 25.8 285.494 24.5627 284.556 23.88C283.66 23.1547 282.55 22.792 281.228 22.792C279.82 22.792 278.668 23.1333 277.772 23.816C278.625 24.1147 279.244 24.584 279.628 25.224C280.012 25.8213 280.204 26.4827 280.204 27.208C280.204 28.616 279.692 29.7467 278.668 30.6C277.686 31.4107 276.47 31.816 275.02 31.816C273.398 31.816 272.097 31.3467 271.116 30.408C270.134 29.4267 269.644 28.2107 269.644 26.76C269.644 25.3093 270.134 23.944 271.116 22.664C272.097 21.3413 273.612 20.2533 275.66 19.4C277.75 18.5467 280.438 18.12 283.724 18.12C292.3 18.12 296.588 21.512 296.588 28.296V45.256C296.588 47.304 297.569 48.5413 299.532 48.968V51.016C298.977 51.8267 298.038 52.4453 296.716 52.872C295.393 53.256 294.113 53.448 292.876 53.448C289.974 53.448 287.926 52.4453 286.732 50.44C285.878 51.208 284.748 51.912 283.34 52.552C281.932 53.1493 280.268 53.448 278.348 53.448ZM282.508 48.264C283.105 48.264 283.724 48.1787 284.364 48.008C285.004 47.7947 285.537 47.5387 285.964 47.24V41.032C285.537 40.7333 284.982 40.4773 284.3 40.264C283.66 40.0507 283.02 39.944 282.38 39.944C281.27 39.944 280.31 40.3067 279.5 41.032C278.689 41.7147 278.284 42.8027 278.284 44.296C278.284 45.448 278.668 46.408 279.436 47.176C280.204 47.9013 281.228 48.264 282.508 48.264ZM307.283 53C306.301 52.0187 305.811 50.8667 305.811 49.544C307.091 49.544 307.987 49.2667 308.499 48.712C309.053 48.1573 309.331 47.2613 309.331 46.024V24.84H305.427V20.872C306.365 20.6587 307.112 20.4027 307.667 20.104C308.221 19.8053 308.733 19.4853 309.203 19.144C309.032 18.1627 308.904 17.2667 308.819 16.456C308.733 15.6453 308.691 14.7067 308.691 13.64C308.691 9.20266 309.864 5.896 312.211 3.72C314.557 1.50133 317.736 0.391998 321.747 0.391998C323.795 0.391998 325.48 0.818665 326.803 1.672C328.125 2.48266 329.107 3.48533 329.747 4.68C330.387 5.87466 330.707 7.00533 330.707 8.072C330.707 9.65067 330.28 10.9733 329.427 12.04C328.616 13.1067 327.507 13.64 326.099 13.64C324.819 13.64 323.688 13.192 322.707 12.296C321.725 11.3573 321.235 10.2907 321.235 9.096C321.235 8.584 321.341 8.008 321.555 7.368C321.768 6.68533 322.301 6.024 323.155 5.384C323.027 5.17067 322.792 5 322.451 4.872C322.152 4.70133 321.875 4.616 321.619 4.616C320.936 4.616 320.296 4.95733 319.699 5.64C319.101 6.28 318.611 7.13333 318.227 8.2C317.885 9.26667 317.715 10.3973 317.715 11.592C317.715 12.872 317.821 14.088 318.035 15.24C318.291 16.392 318.589 17.3307 318.931 18.056C319.272 18.7387 319.571 19.08 319.827 19.08H325.971C325.971 20.0187 325.907 21.0427 325.779 22.152C325.651 23.2187 325.352 24.1147 324.883 24.84H319.443V45.448C319.443 46.3867 319.592 47.176 319.891 47.816C320.189 48.4133 320.787 48.8613 321.683 49.16C322.579 49.416 323.901 49.544 325.651 49.544C325.651 50.8667 325.16 52.0187 324.179 53H307.283ZM344.617 53.448C342.825 53.448 341.182 53.128 339.689 52.488C338.196 51.8053 336.98 50.6533 336.041 49.032C335.145 47.4107 334.697 45.192 334.697 42.376V24.776H330.665V20.872C331.817 20.7013 332.905 19.976 333.929 18.696C334.953 17.416 335.828 15.8373 336.553 13.96C337.321 12.0827 337.812 10.2053 338.025 8.328C338.793 8.2 339.497 8.136 340.137 8.136C341.844 8.136 343.017 8.62666 343.657 9.608C344.34 10.5893 344.681 11.5067 344.681 12.36V19.08H352.105C352.105 20.104 352.041 21.128 351.913 22.152C351.828 23.1333 351.55 24.008 351.081 24.776H344.809V42.824C344.809 44.1893 345.086 45.1067 345.641 45.576C346.196 46.0027 346.9 46.216 347.753 46.216C348.606 46.216 349.46 46.0027 350.313 45.576C351.209 45.1067 351.913 44.5733 352.425 43.976C352.894 44.36 353.214 44.936 353.385 45.704C353.556 46.4293 353.641 46.984 353.641 47.368C353.641 48.3067 353.321 49.2453 352.681 50.184C352.041 51.1227 351.038 51.912 349.673 52.552C348.35 53.1493 346.665 53.448 344.617 53.448Z" fill="white"/>
</g>
<defs>
<clipPath id="clip0_2527_658">
<rect width="354" height="54" fill="white"/>
</clipPath>
</defs>
</svg>
