<svg width="24" height="24" viewBox="0 0 24 24" fill="none" xmlns="http://www.w3.org/2000/svg">
<path d="M19.8516 4.14839C18.2812 2.57527 15.9722 1.94902 13.3556 2.38496C10.8328 2.80589 8.30531 4.17464 6.24 6.23996C4.17469 8.30527 2.80594 10.8337 2.385 13.3556C1.94906 15.9721 2.5725 18.2784 4.14844 19.8515C5.39438 21.0984 7.10156 21.75 9.05813 21.75C9.58968 21.7484 10.1202 21.7033 10.6444 21.615C13.1672 21.194 15.6947 19.8253 17.76 17.76C19.8253 15.6946 21.1941 13.1662 21.615 10.6443C22.0509 8.02777 21.4247 5.71871 19.8516 4.14839ZM7.30031 7.30027C9.615 4.98652 12.4687 3.74339 14.9203 3.74339C15.8638 3.72901 16.7967 3.94358 17.6391 4.36871C16.5884 4.73526 15.605 5.27177 14.7281 5.95683C12.9281 7.37808 11.7628 9.36183 11.265 11.8528C10.3538 16.4071 7.07438 17.9634 4.93875 18.494C2.69156 15.8212 3.69375 10.9078 7.30031 7.30027ZM16.6997 16.6996C13.4475 19.9509 9.13312 21.0853 6.35719 19.6312C7.409 19.2646 8.39362 18.7282 9.27188 18.0431C11.0719 16.6218 12.2372 14.6381 12.735 12.1471C13.6462 7.59277 16.9256 6.03652 19.0613 5.50589C21.3084 8.17871 20.3062 13.0921 16.6997 16.6996Z" fill="#FFCA4F"/>
</svg>
