<svg width="24" height="24" viewBox="0 0 24 24" fill="none" xmlns="http://www.w3.org/2000/svg">
<path d="M20.8273 16.6172C20.9544 16.7696 21.0159 16.9662 20.9983 17.1639C20.9808 17.3616 20.8855 17.5442 20.7336 17.6719C19.1061 19.0209 17.6529 19.5 16.3273 19.5C14.5854 19.5 13.0629 18.6731 11.6464 17.9062C9.2698 16.6162 7.21761 15.5025 4.23355 17.9756C4.15789 18.0394 4.07034 18.0876 3.97596 18.1175C3.88158 18.1473 3.78222 18.1581 3.68363 18.1494C3.58504 18.1406 3.48915 18.1124 3.4015 18.0664C3.31385 18.0204 3.23618 17.9575 3.17295 17.8814C3.10972 17.8052 3.0622 17.7173 3.03311 17.6227C3.00403 17.5281 2.99396 17.4287 3.00348 17.3301C3.01301 17.2316 3.04194 17.1359 3.08862 17.0487C3.13529 16.9614 3.19878 16.8842 3.27543 16.8216C7.04136 13.7016 9.86793 15.2353 12.3626 16.5891C14.7392 17.8781 16.7914 18.9919 19.7754 16.5197C19.9282 16.3939 20.1244 16.3336 20.3214 16.3518C20.5185 16.3701 20.7003 16.4655 20.8273 16.6172ZM19.7707 11.2734C16.7867 13.7466 14.7345 12.6328 12.3579 11.3428C9.86324 9.98999 7.03668 8.45624 3.27074 11.5762C3.11946 11.7038 3.02475 11.886 3.00724 12.0832C2.98972 12.2803 3.05083 12.4764 3.17724 12.6286C3.30366 12.7809 3.48513 12.877 3.68211 12.8961C3.87909 12.9151 4.07562 12.8555 4.22887 12.7303C7.21293 10.2572 9.26512 11.3709 11.6417 12.6609C13.0582 13.4287 14.5807 14.2547 16.3226 14.2547C17.6482 14.2547 19.1014 13.7756 20.7289 12.4266C20.8055 12.3639 20.869 12.2867 20.9157 12.1994C20.9624 12.1122 20.9913 12.0165 21.0008 11.918C21.0103 11.8195 21.0003 11.72 20.9712 11.6254C20.9421 11.5308 20.8946 11.4429 20.8313 11.3667C20.7681 11.2906 20.6904 11.2277 20.6028 11.1817C20.5151 11.1357 20.4193 11.1075 20.3207 11.0987C20.2221 11.09 20.1227 11.1008 20.0283 11.1306C19.9339 11.1605 19.8464 11.2096 19.7707 11.2734Z" fill="#A66F00"/>
</svg>
