<svg width="24" height="24" viewBox="0 0 24 24" fill="none" xmlns="http://www.w3.org/2000/svg">
<path d="M20.8273 16.6168C20.9544 16.7692 21.0159 16.9658 20.9983 17.1635C20.9807 17.3612 20.8855 17.5439 20.7335 17.6715C19.106 19.0206 17.6529 19.4996 16.3273 19.4996C14.5854 19.4996 13.0629 18.6728 11.6463 17.9059C9.26977 16.6159 7.21758 15.5021 4.23352 17.9753C4.15786 18.0391 4.07031 18.0873 3.97593 18.1171C3.88155 18.1469 3.78219 18.1578 3.6836 18.149C3.585 18.1403 3.48912 18.1121 3.40147 18.0661C3.31382 18.0201 3.23615 17.9572 3.17292 17.881C3.10969 17.8049 3.06217 17.717 3.03308 17.6223C3.004 17.5277 2.99392 17.4283 3.00345 17.3298C3.01298 17.2312 3.04191 17.1356 3.08859 17.0483C3.13526 16.961 3.19875 16.8838 3.2754 16.8212C7.04133 13.7012 9.8679 15.2349 12.3626 16.5887C14.7391 17.8778 16.7913 18.9915 19.7754 16.5193C19.9281 16.3935 20.1244 16.3332 20.3214 16.3515C20.5184 16.3697 20.7003 16.4651 20.8273 16.6168ZM19.7707 11.2731C16.7866 13.7462 14.7345 12.6324 12.3579 11.3424C9.86321 9.98962 7.03665 8.45587 3.27071 11.5759C3.11943 11.7035 3.02472 11.8857 3.0072 12.0828C2.98969 12.2799 3.0508 12.476 3.17721 12.6283C3.30363 12.7805 3.4851 12.8767 3.68208 12.8957C3.87906 12.9147 4.07559 12.8552 4.22883 12.7299C7.2129 10.2568 9.26509 11.3706 11.6416 12.6606C13.0582 13.4284 14.5807 14.2543 16.3226 14.2543C17.6482 14.2543 19.1013 13.7753 20.7288 12.4262C20.8055 12.3636 20.869 12.2864 20.9156 12.1991C20.9623 12.1118 20.9913 12.0161 21.0008 11.9176C21.0103 11.8191 21.0002 11.7197 20.9711 11.625C20.9421 11.5304 20.8945 11.4425 20.8313 11.3664C20.7681 11.2902 20.6904 11.2273 20.6028 11.1813C20.5151 11.1353 20.4192 11.1071 20.3206 11.0984C20.222 11.0896 20.1227 11.1005 20.0283 11.1303C19.9339 11.1601 19.8464 11.2092 19.7707 11.2731Z" fill="#A66F00"/>
<path d="M12.2728 6.24407C14.6494 7.53407 16.7015 8.64782 19.6856 6.17469C19.7613 6.11087 19.8488 6.06173 19.9432 6.03191C20.0376 6.00208 20.1369 5.99124 20.2355 6C20.3341 6.00876 20.43 6.03695 20.5177 6.08294C20.6053 6.12894 20.683 6.19182 20.7462 6.26798C20.8094 6.34414 20.857 6.43206 20.886 6.52667C20.9151 6.62128 20.9252 6.72072 20.9157 6.81924C20.9061 6.91776 20.8772 7.01343 20.8305 7.10071C20.7839 7.188 20.7204 7.26518 20.6437 7.32782C19.0162 8.67688 17.5631 9.15594 16.2375 9.15594C14.4969 9.15594 12.9754 8.33123 11.5597 7.56391L11.5565 7.56219C9.17998 6.27219 7.1278 5.15844 4.14373 7.63157C3.99049 7.75679 3.79396 7.81637 3.59698 7.79733C3.4 7.77828 3.21853 7.68215 3.09211 7.52989C2.9657 7.37762 2.90459 7.18156 2.9221 6.98444C2.93962 6.78731 3.03433 6.6051 3.18561 6.4775C6.95084 3.35809 9.77705 4.89068 12.2714 6.24331L12.2728 6.24407Z" fill="#A66F00"/>
</svg>
