<svg width="24" height="24" viewBox="0 0 24 24" fill="none" xmlns="http://www.w3.org/2000/svg">
<path d="M20.8273 16.6172C20.9544 16.7696 21.0159 16.9662 20.9983 17.1639C20.9808 17.3616 20.8855 17.5443 20.7336 17.6719C19.1061 19.0209 17.6529 19.5 16.3273 19.5C14.5854 19.5 13.0629 18.6731 11.6464 17.9063C9.2698 16.6163 7.21761 15.5025 4.23355 17.9756C4.15789 18.0394 4.07034 18.0877 3.97596 18.1175C3.88158 18.1473 3.78222 18.1581 3.68363 18.1494C3.58504 18.1406 3.48915 18.1124 3.4015 18.0664C3.31385 18.0204 3.23618 17.9576 3.17295 17.8814C3.10972 17.8052 3.0622 17.7173 3.03311 17.6227C3.00403 17.5281 2.99396 17.4287 3.00348 17.3301C3.01301 17.2316 3.04194 17.136 3.08862 17.0487C3.13529 16.9614 3.19878 16.8842 3.27543 16.8216C7.04136 13.7016 9.86793 15.2353 12.3626 16.5891C14.7392 17.8781 16.7914 18.9919 19.7754 16.5197C19.9282 16.3939 20.1244 16.3336 20.3214 16.3518C20.5185 16.3701 20.7003 16.4655 20.8273 16.6172Z" fill="#A66F00"/>
</svg>
